# xmcd
#
# Track frame offsets:
# 150
# 15550
# 35264
# 47854
# 64222
# 86207
# 103664
# 120373
# 139928
#
# Disc length: 2042 seconds
#
#
# Revision: 0
# Processed by: cddbd v1.5.1PL2 Copyright (c) Steve Scherf et al.
# Submitted via: FreeRIP 2.944 
#
DISCID=7607f809
DTITLE=The Fabulous Thunderbirds - Tuff Enuff
DYEAR=2005
DGENRE=Blues
TTITLE0=Tuff Enuff
TTITLE1=Twist Of The Knife
TTITLE2=Wrap It Up
TTITLE3=Stand Back
TTITLE4=Powerful Stuff
TTITLE5=Why Get Up
TTITLE6=Two Time My Lovin'
TTITLE7=Rock This Place
TTITLE8=Last Call For Alcohol
EXTD=Compilation
EXTT0=
EXTT1=
EXTT2=
EXTT3=
EXTT4=
EXTT5=
EXTT6=
EXTT7=
EXTT8=
PLAYORDER=
